# xmcd
#
# Track frame offsets: 
#        150
#        20632
#        43939
#        67444
#        87407
#        117575
#        139759
#        161642
#        187682
#        205427
#        223577
#        243902
#        263788
#
# Disc length: 3815 seconds
#
# Revision: 1
# Processed by: cddbd v1.5.2PL0 Copyright (c) Steve Scherf et al.
# Submitted via: ExactAudioCopyFreeDBPlugin 1.0
#
DISCID=c90ee50d
DTITLE=Crystal Kay - CK5
DYEAR=2004
DGENRE=JPop
TTITLE0=Motherland
TTITLE1=Eternal Memories
TTITLE2=Ex-Boyfriend
TTITLE3=月のない夜　道のない場所
TTITLE4=LOST CHILD
TTITLE5=think of U
TTITLE6=hard to say
TTITLE7=I LIKE IT
TTITLE8=OVER THE RAINBOW
TTITLE9=lead me to the end
TTITLE10=Can't be Stopped
TTITLE11=片想い
TTITLE12=Boyfriend -part2-
EXTD=YEAR: 2004
EXTT0=
EXTT1=
EXTT2=
EXTT3=
EXTT4=
EXTT5=
EXTT6=
EXTT7=
EXTT8=
EXTT9=
EXTT10=
EXTT11=
EXTT12=
PLAYORDER=
